<?xml version="1.0" encoding="utf-8"?>
<!-- Generator: Adobe Illustrator 28.2.0, SVG Export Plug-In . SVG Version: 6.00 Build 0)  -->
<svg version="1.1" xmlns="http://www.w3.org/2000/svg" xmlns:xlink="http://www.w3.org/1999/xlink" x="0px" y="0px"
	 viewBox="0 0 425.2 425.2" style="enable-background:new 0 0 425.2 425.2;" xml:space="preserve">
<style type="text/css">
	.st0{fill:#EE3C39;}
	.st1{fill:none;stroke:#005DA5;stroke-miterlimit:10;}
	.st2{fill:#FFFFFF;}
	.st3{fill:#2D5FA9;}
	.st4{fill:#2E84C6;}
	.st5{fill:#2B89C9;}
	.st6{fill:#DB5726;}
	.st7{fill:#1B478F;}
</style>
<g id="Layer_1">
</g>
<g id="Layer_2">
	<g>
		<g>
			<path class="st0" d="M378.65,209.23c0,91.7-74.37,166.03-166.07,166.03c-91.7,0-166.03-74.34-166.03-166.03
				c0-91.73,74.33-166.07,166.03-166.07C304.28,43.17,378.65,117.51,378.65,209.23z"/>
		</g>
	</g>
	<g>
		<g>
			<path class="st1" d="M330.46,209.22c0,65.09-52.79,117.88-117.89,117.88c-65.08,0-117.87-52.79-117.87-117.88
				c0-65.09,52.79-117.87,117.87-117.87C277.67,91.35,330.46,144.13,330.46,209.22z"/>
		</g>
	</g>
	<g>
		<path class="st2" d="M69.92,217.99c0,2.42-1.94,4.38-4.4,4.38c-2.38,0-4.35-1.96-4.35-4.38c0-2.43,1.97-4.38,4.35-4.38
			C67.97,213.6,69.92,215.56,69.92,217.99z"/>
		<path class="st2" d="M362.63,214.47c0,2.44-1.97,4.4-4.37,4.4c-2.43,0-4.39-1.96-4.39-4.4c0-2.41,1.96-4.37,4.39-4.37
			C360.66,210.11,362.63,212.06,362.63,214.47z"/>
	</g>
	<g>
		<path class="st2" d="M76.58,239.43l-0.9-3.87l1.4-0.33l2.25,9.39l-1.39,0.34l-0.96-3.89l-11.22,2.72l-0.48-1.65L76.58,239.43z"/>
		<path class="st2" d="M80.13,251.85l-1.27-3.75l1.36-0.47l3.13,9.12l-1.36,0.46l-1.31-3.76l-10.95,3.76l-0.58-1.6L80.13,251.85z"/>
		<path class="st2" d="M88.29,268.03l-4.83,2.5l2.93,5.61l4.81-2.52l0.78,1.51l-11.57,6.01l-0.79-1.54l5.45-2.8l-2.92-5.6l-5.41,2.8
			l-0.79-1.49l11.55-6.02L88.29,268.03z"/>
		<path class="st2" d="M95.63,281.13l-6.43,4.27c-2.46,1.6-2.77,3.37-1.79,4.82c1.05,1.6,2.81,1.94,5.21,0.36l6.43-4.28l0.95,1.42
			l-6.34,4.23c-3.36,2.22-5.88,1.34-7.44-1.01c-1.49-2.22-1.3-4.74,2.05-6.98l6.41-4.26L95.63,281.13z"/>
		<path class="st2" d="M97.22,298.76l-4.06,1.55l-1.1-1.35l12.92-4.82l1.31,1.54l-7.27,11.73l-1.15-1.4l2.25-3.68L97.22,298.76z
			 M100.95,301.23l2.05-3.37c0.5-0.76,0.97-1.4,1.43-2.04v-0.02c-0.72,0.33-1.45,0.68-2.26,0.98l-3.74,1.41L100.95,301.23z
			 M108.31,293.63l-0.58,2.81l-0.84-1.04l0.41-1.69l-0.06-0.02l-1.74,0.02l-0.81-1.01l2.84-0.01L108.31,293.63z M112.1,295.99
			l-3.01-0.53l-0.67-0.78l2.6-0.05L112.1,295.99z"/>
		<path class="st2" d="M102.84,311.59l9.19-9.29l1.33,1.31l-1.71,7.63c-0.37,1.74-0.78,3.28-1.31,4.65l0.02,0.02
			c1.13-1.34,2.26-2.5,3.66-3.95l3.81-3.89l1.14,1.12l-9.16,9.28l-1.21-1.2l1.7-7.61c0.36-1.68,0.82-3.34,1.31-4.8v-0.02
			c-1.1,1.24-2.21,2.35-3.74,3.9l-3.9,3.96L102.84,311.59z"/>
		<path class="st2" d="M128.26,316.93l1.36,1.01l-6.92,9.39l4.52,3.3l-0.82,1.15l-5.87-4.32L128.26,316.93z"/>
		<path class="st2" d="M138.51,324.15l-3.96,6.62c-1.51,2.49-1.01,4.23,0.43,5.11c1.65,0.99,3.4,0.56,4.87-1.9l4-6.62l1.48,0.89
			l-3.97,6.51c-2.06,3.42-4.73,3.73-7.13,2.28c-2.28-1.4-3.23-3.73-1.13-7.21l3.96-6.56L138.51,324.15z"/>
		<path class="st2" d="M147.08,343.77l2.35-5.02l-0.52-8.55l1.76,0.82l0.11,4.04c0.03,1.12,0.05,2,0.03,2.98l0.02,0.03
			c0.7-0.64,1.45-1.2,2.35-1.88l3.25-2.44l1.7,0.81l-7.18,4.91l-2.34,5.01L147.08,343.77z"/>
		<path class="st2" d="M165.61,344.81l-4.72-1.76l-1.65,4.41l5.3,1.96l-0.49,1.32l-6.86-2.53l4.48-12.25l6.63,2.44l-0.48,1.34
			l-5.01-1.85l-1.45,3.87l4.75,1.74L165.61,344.81z M158.75,351.49c0.19-0.48,0.75-0.76,1.24-0.59c0.51,0.17,0.74,0.76,0.56,1.23
			c-0.17,0.5-0.73,0.79-1.21,0.59C158.81,352.56,158.61,351.96,158.75,351.49z M166.66,334.72l1.17,2.77l-1.36-0.5l-0.68-1.68
			l-0.05-0.02l-1.62,0.82l-1.27-0.46l2.63-1.4L166.66,334.72z"/>
		<path class="st2" d="M169.67,352.56l3.3-12.64l1.8,0.47l2.37,7.45c0.52,1.71,0.92,3.22,1.2,4.66h0.05
			c0.26-1.73,0.65-3.28,1.13-5.24l1.38-5.28l1.54,0.4L179.17,355l-1.65-0.42l-2.35-7.46c-0.54-1.63-0.98-3.28-1.27-4.82l-0.05,0.02
			c-0.32,1.6-0.69,3.14-1.21,5.24l-1.4,5.38L169.67,352.56z"/>
		<path class="st2" d="M194.34,344.45l1.69,0.19l-0.65,6.25h0.05c0.38-0.46,0.82-0.88,1.17-1.27l4.48-4.46l2.08,0.23l-5.3,5
			l4.29,8.01l-1.97-0.22l-3.59-6.81l-1.38,1.3l-0.54,4.93l-1.68-0.17L194.34,344.45z"/>
		<path class="st2" d="M209.86,358.61l0.05-5.52l-4.05-7.55l1.94,0.02l1.79,3.62c0.49,0.99,0.87,1.79,1.27,2.69h0.02
			c0.38-0.82,0.85-1.68,1.37-2.66l1.9-3.57l1.88,0.03l-4.43,7.43l-0.06,5.55L209.86,358.61z M208.46,344.78
			c0-1.2,0.54-1.97,1.38-1.96c0.4,0,0.75,0.17,1.12,0.39c0.32,0.17,0.64,0.36,0.93,0.37c0.29,0,0.5-0.14,0.55-0.75l0.89,0.01
			c0,1.21-0.43,1.87-1.32,1.85c-0.38,0-0.78-0.17-1.2-0.39c-0.37-0.19-0.62-0.39-0.93-0.39c-0.32,0-0.43,0.34-0.51,0.86H208.46z"/>
		<path class="st2" d="M228.46,357.91l-1.75-12.91l1.83-0.25l5.04,5.98c1.13,1.37,2.08,2.63,2.87,3.88l0.03-0.06
			c-0.39-1.68-0.64-3.25-0.89-5.27l-0.76-5.41l1.57-0.2l1.76,12.91l-1.68,0.23l-4.97-6c-1.11-1.3-2.2-2.67-2.99-3.98l-0.09,0.02
			c0.35,1.62,0.58,3.17,0.88,5.32l0.75,5.52L228.46,357.91z"/>
		<path class="st2" d="M243.92,339.21c0.23,0.42,0.65,0.81,1.57,0.57c0.95-0.22,1.18-0.75,1.14-1.26l0.99-0.22
			c0.2,1.12-0.26,2.16-1.89,2.58c-1.59,0.39-2.49-0.3-2.81-1.45L243.92,339.21z M245.84,350.81l-0.33,4.31l-1.72,0.44l1.19-13.74
			l1.96-0.5l7.48,11.59l-1.78,0.44l-2.34-3.65L245.84,350.81z M249.7,348.49l-2.17-3.33c-0.5-0.76-0.87-1.46-1.24-2.14h-0.04
			c0,0.79,0,1.61-0.08,2.46l-0.33,3.96L249.7,348.49z"/>
		<path class="st2" d="M259.84,351.21l-4.45-12.25l1.72-0.64l6.17,4.77c1.42,1.1,2.61,2.13,3.65,3.19l0.04-0.03
			c-0.72-1.57-1.34-3.06-2-4.97l-1.9-5.13l1.51-0.54l4.49,12.25l-1.62,0.59l-6.14-4.79c-1.35-1.07-2.7-2.18-3.78-3.26l-0.03,0.03
			c0.65,1.51,1.2,2.97,1.95,5.02l1.89,5.22L259.84,351.21z"/>
		<path class="st2" d="M283.9,340.3c-0.59,0.61-1.74,1.63-3.33,2.42c-1.77,0.87-3.44,1.15-5.16,0.61c-1.47-0.48-2.84-1.73-3.76-3.54
			c-1.73-3.5-0.54-7.26,3.35-9.17c1.38-0.68,2.62-0.92,3.2-0.92l0.23,1.43c-0.76,0-1.65,0.19-2.81,0.76c-2.87,1.4-3.86,4.1-2.4,7.04
			c1.44,2.95,4.1,3.84,6.85,2.49c0.96-0.48,1.6-0.96,1.85-1.3l-1.73-3.48l-2.35,1.17l-0.63-1.23l3.88-1.9L283.9,340.3z"/>
		<path class="st2" d="M290.62,323.27l-3.27,2.22l-0.83-1.18l8-5.45l0.79,1.18l-3.28,2.27l6.54,9.58l-1.42,0.96L290.62,323.27z"/>
		<path class="st2" d="M298.84,315.47l3.51,4.18l4.83-4.06l-3.47-4.18l1.3-1.1l8.4,10.03l-1.33,1.09l-3.92-4.69l-4.86,4.06
			l3.94,4.69l-1.3,1.09l-8.37-10.01L298.84,315.47z"/>
		<path class="st2" d="M318.53,306.7L315,310.3l3.39,3.3l3.92-4.03l1.03,1l-5.15,5.24l-9.29-9.14l4.94-5.05l0.98,0.99l-3.73,3.82
			l2.92,2.89l3.57-3.61L318.53,306.7z M309.76,301.62l2.89,0.25l-0.98,0.95l-1.72-0.18l-0.02,0.05l0.24,1.69l-0.96,0.95l-0.29-2.83
			L309.76,301.62z M311.67,297.56l-0.18,3.11l-0.69,0.68l-0.32-2.58L311.67,297.56z"/>
		<path class="st2" d="M322.44,291.44l4.41,3.2l3.73-5.08l-4.41-3.22l1.03-1.37l10.51,7.69l-1.02,1.38l-4.93-3.62l-3.73,5.1
			l4.95,3.62l-1,1.37l-10.52-7.69L322.44,291.44z"/>
		<path class="st2" d="M329.68,275.37l2.95-0.62l-0.71,1.23l-1.8,0.37l-0.04,0.05l0.53,1.74l-0.69,1.18l-0.86-2.83L329.68,275.37z
			 M339.44,278.21l-2.58,4.35l4.06,2.39l2.9-4.88l1.19,0.73l-3.73,6.32l-11.21-6.64l3.57-6.08l1.24,0.72l-2.76,4.62l3.57,2.1
			l2.55-4.35L339.44,278.21z M344.76,286.14c-0.43-0.25-0.61-0.84-0.31-1.31c0.22-0.45,0.84-0.57,1.27-0.33
			c0.47,0.28,0.66,0.87,0.37,1.32C345.84,286.29,345.2,286.42,344.76,286.14z"/>
		<path class="st2" d="M340.84,262.95l-1.55,3.64l-1.33-0.56l3.8-8.9l1.3,0.57l-1.54,3.67l10.69,4.55l-0.69,1.57L340.84,262.95z"/>
		<path class="st2" d="M343.23,253.53c0.12-0.86,0.4-2.05,0.72-3.16c0.56-1.73,1.25-2.74,2.21-3.26c0.72-0.45,1.7-0.53,2.69-0.22
			c1.62,0.53,2.35,1.91,2.4,3.34l0.03,0.02c0.67-0.82,1.74-1.12,3.11-0.99c1.88,0.16,3.16,0.25,3.7,0.14l-0.54,1.66
			c-0.41,0.08-1.51,0.02-3.22-0.14c-1.83-0.19-2.7,0.3-3.22,1.73l-0.48,1.51l5.41,1.73l-0.53,1.6L343.23,253.53z M349.4,253.76
			l0.55-1.65c0.54-1.73-0.05-3.11-1.48-3.56c-1.58-0.53-2.66,0.4-3.21,2.11c-0.23,0.76-0.34,1.32-0.37,1.63L349.4,253.76z"/>
		<path class="st2" d="M346.57,237.8c-0.73-0.48-0.7-1.21-1.37-1.35c-0.31-0.08-0.64,0.12-0.72,0.5c-0.07,0.39,0.19,0.79,0.47,1.07
			l-0.53,0.56c-0.6-0.51-1.03-1.18-0.83-2.16c0.2-0.86,0.93-1.43,1.71-1.26c0.95,0.22,0.95,1.1,1.74,1.8L346.57,237.8z
			 M355.02,236.09l-1.1,4.94l4.6,1.04l1.21-5.52l1.37,0.29l-1.59,7.2l-12.74-2.86l1.56-6.92l1.38,0.31l-1.21,5.25l4.06,0.89
			l1.1-4.93L355.02,236.09z"/>
	</g>
	<g>
		<g>
			<g>
				<path class="st2" d="M60.74,198.74l0.21-1.74l11.75,1.2l0.61-5.64l1.42,0.14l-0.75,7.4L60.74,198.74z"/>
				<path class="st2" d="M62.3,186.2l13.19,2.11l-0.33,1.71l-13.15-2.1L62.3,186.2z"/>
				<path class="st2" d="M61.11,177l2.64-1.54l-0.29,1.43l-1.62,0.92v0.03l1.07,1.52l-0.33,1.37l-1.76-2.44L61.11,177z
					 M71.48,176.57l-1.13,5.04l4.71,1.03l1.24-5.63l1.37,0.31l-1.6,7.32l-12.99-2.86l1.55-7.02l1.39,0.29l-1.16,5.36l4.13,0.89
					l1.08-5.02L71.48,176.57z"/>
				<path class="st2" d="M78.41,174.45l-12.65-3.99l0.54-1.82l7.69-2c1.8-0.47,3.36-0.79,4.84-0.98v-0.06
					c-1.73-0.37-3.29-0.82-5.27-1.44l-5.31-1.68l0.5-1.54l12.65,4l-0.51,1.66l-7.71,2.01c-1.69,0.44-3.38,0.82-4.95,1.01v0.06
					c1.59,0.4,3.12,0.87,5.25,1.54l5.41,1.69L78.41,174.45z"/>
				<path class="st2" d="M73.3,149.58l5.04,2.36l2.71-5.83l-5.03-2.36l0.75-1.58l12.04,5.66l-0.75,1.59l-5.67-2.66l-2.73,5.83
					l5.67,2.66l-0.75,1.57l-12.04-5.66L73.3,149.58z"/>
				<path class="st2" d="M79.85,136.61l11.62,6.48l-0.84,1.52L79,138.14L79.85,136.61z"/>
				<path class="st2" d="M81.9,127.45l3.02-0.54l-0.75,1.23l-1.87,0.33v0.03l0.48,1.79l-0.75,1.18l-0.82-2.91L81.9,127.45z
					 M91.72,130.64l-2.71,4.35l4.05,2.58l3.09-4.86l1.23,0.78l-4.04,6.33l-11.23-7.12l3.85-6.09l1.21,0.78l-2.91,4.62l3.56,2.25
					l2.76-4.35L91.72,130.64z M96.93,138.91c-0.44-0.26-0.61-0.89-0.29-1.35c0.29-0.45,0.87-0.55,1.36-0.28
					c0.44,0.3,0.62,0.9,0.3,1.35C98,139.11,97.39,139.2,96.93,138.91z"/>
				<path class="st2" d="M88.57,123.13c0.38-0.73,0.92-1.68,1.76-2.78c1.02-1.35,2.08-2.11,3.13-2.33c0.92-0.17,1.97,0.05,2.91,0.76
					c0.96,0.71,1.52,1.57,1.66,2.52c0.23,1.34-0.26,2.78-1.28,4.12c-0.31,0.42-0.56,0.79-0.92,1.06l4.3,3.19l-1.07,1.37
					L88.57,123.13z M94.73,125.62c0.29-0.23,0.61-0.61,0.96-1.04c1.25-1.68,1.19-3.3-0.25-4.37c-1.45-1.07-2.88-0.57-3.97,0.93
					c-0.5,0.59-0.76,1.07-0.87,1.37L94.73,125.62z"/>
				<path class="st2" d="M99.57,109.16l1.22-1.24l4.62,4.43l0.02-0.05c-0.11-0.62-0.19-1.2-0.27-1.74l-0.82-6.37l1.47-1.55
					l0.75,7.37l9.13,1.54l-1.43,1.48l-7.7-1.35l0.16,1.93l3.68,3.51l-1.19,1.23L99.57,109.16z"/>
				<path class="st2" d="M109.67,99.03l3.68,4.18l4.84-4.26l-3.68-4.18l1.32-1.13l8.76,9.98l-1.31,1.17l-4.11-4.69l-4.81,4.26
					l4.09,4.68l-1.3,1.15l-8.77-10.01L109.67,99.03z"/>
				<path class="st2" d="M132.75,89.2c2.64,3.7,1.79,7.32-0.96,9.29c-2.87,2.07-6.47,1.26-8.83-2.02c-2.43-3.45-1.94-7.2,0.98-9.26
					C126.9,85.08,130.46,85.97,132.75,89.2z M124.47,95.39c1.66,2.33,4.38,3.5,6.58,1.91c2.22-1.58,1.99-4.52,0.26-6.98
					c-1.55-2.16-4.28-3.61-6.61-1.94C122.35,90.04,122.74,93.03,124.47,95.39z"/>
				<path class="st2" d="M138.71,88.66l0.89,4.31l-1.52,0.9l-2.76-13.77l1.77-1.04l10.6,9.25l-1.56,0.9l-3.36-2.92L138.71,88.66z
					 M141.81,85.3l-3.03-2.64c-0.7-0.61-1.24-1.2-1.83-1.76l-0.03,0.03c0.21,0.76,0.46,1.57,0.65,2.41l0.78,3.96L141.81,85.3z"/>
				<path class="st2" d="M151.05,71.98l2.14,5.11l5.98-2.45l-2.18-5.15l1.62-0.65l5.14,12.28l-1.62,0.65l-2.39-5.75l-5.95,2.47
					l2.39,5.75l-1.58,0.67l-5.13-12.28L151.05,71.98z"/>
				<path class="st2" d="M176.09,70.09c1.29,4.35-0.65,7.51-3.93,8.48c-3.36,1.03-6.48-0.9-7.67-4.74
					c-1.22-4.06,0.49-7.46,3.89-8.49C171.85,64.31,174.91,66.29,176.09,70.09z M166.22,73.26c0.84,2.75,3.08,4.72,5.64,3.95
					c2.61-0.79,3.36-3.64,2.49-6.53c-0.75-2.53-2.88-4.8-5.61-3.96C165.99,67.54,165.38,70.48,166.22,73.26z M172.04,81.08
					c-0.18-0.5,0.09-1.07,0.65-1.23c0.51-0.16,1.04,0.17,1.18,0.67c0.18,0.5-0.09,1.07-0.63,1.23
					C172.71,81.93,172.16,81.57,172.04,81.08z"/>
				<path class="st2" d="M189.92,73.72c-0.56,0.43-1.75,0.99-3.35,1.3c-3.67,0.75-6.89-1.03-7.76-5.32
					c-0.81-4.12,1.39-7.43,5.45-8.24c1.62-0.31,2.71-0.17,3.22-0.03l-0.16,1.46c-0.69-0.19-1.65-0.25-2.71-0.02
					c-3.07,0.61-4.73,2.99-4.03,6.4c0.66,3.2,2.9,4.88,6.05,4.24c1.07-0.22,2.07-0.64,2.67-1.1L189.92,73.72z"/>
				<path class="st2" d="M196.95,60c1.03-0.26,2.26-0.45,3.62-0.54c2.46-0.19,4.25,0.3,5.49,1.29c1.27,0.98,2.06,2.47,2.24,4.62
					c0.1,2.16-0.44,3.98-1.6,5.3c-1.16,1.33-3.16,2.14-5.73,2.31c-1.24,0.09-2.26,0.09-3.13,0.06L196.95,60z M199.46,71.61
					c0.44,0.05,1.1,0.02,1.73-0.03c3.64-0.26,5.5-2.44,5.27-6.03c-0.17-3.12-2.11-4.99-5.73-4.74c-0.9,0.06-1.57,0.19-2,0.31
					L199.46,71.61z"/>
				<path class="st2" d="M223.18,65.88c-0.15,4.54-2.99,6.88-6.4,6.79c-3.54-0.11-5.89-2.92-5.77-6.95c0.14-4.21,2.84-6.9,6.36-6.79
					C221.03,59.05,223.3,61.9,223.18,65.88z M212.85,65.75c-0.09,2.83,1.35,5.44,4.08,5.53c2.72,0.06,4.31-2.38,4.43-5.41
					c0.09-2.66-1.22-5.46-4.08-5.55C214.41,60.25,212.89,62.85,212.85,65.75z"/>
				<path class="st2" d="M228.28,69.03l-1.88,3.99l-1.8-0.23l6.19-12.64l2.03,0.26l2.87,13.76l-1.85-0.22l-0.87-4.34L228.28,69.03z
					 M232.79,68.25l-0.83-3.96c-0.18-0.89-0.26-1.71-0.38-2.5h-0.03c-0.28,0.73-0.6,1.54-0.98,2.32l-1.77,3.64L232.79,68.25z"/>
				<path class="st2" d="M238.21,74.67l2.92-12.99l1.85,0.42l2.67,7.49c0.6,1.74,1.07,3.28,1.35,4.74l0.1-0.02
					c0.19-1.76,0.53-3.34,1-5.36l1.21-5.44l1.56,0.37l-2.92,12.96l-1.72-0.37l-2.6-7.51c-0.58-1.66-1.14-3.34-1.44-4.88l-0.07,0.01
					c-0.26,1.65-0.61,3.2-1.1,5.36l-1.23,5.55L238.21,74.67z"/>
				<path class="st2" d="M257.33,65.75l-1.79,5.28l6.12,2.02l1.77-5.28l1.65,0.56l-4.16,12.6l-1.65-0.54l1.95-5.92l-6.14-2.02
					l-1.93,5.92l-1.66-0.55l4.21-12.62L257.33,65.75z"/>
				<path class="st2" d="M269.02,84.25l5.82-11.94l1.7,0.82l0.87,7.9c0.18,1.83,0.26,3.43,0.2,4.91l0.05,0.01
					c0.65-1.65,1.34-3.14,2.26-4.99l2.4-5l1.45,0.71l-5.82,11.95l-1.57-0.78l-0.82-7.91c-0.2-1.74-0.34-3.48-0.29-5.05l-0.05-0.01
					c-0.65,1.54-1.36,2.98-2.32,4.97l-2.49,5.11L269.02,84.25z"/>
				<path class="st2" d="M289.59,79.99l-2.91,4.74l5.48,3.36l2.9-4.72l1.5,0.92l-6.98,11.31l-1.49-0.93l3.29-5.28l-5.49-3.4
					l-3.26,5.32l-1.48-0.92l6.99-11.3L289.59,79.99z"/>
				<path class="st2" d="M296.81,95.61l-3.62,2.52l-1.42-1.07l11.64-7.88l1.65,1.23l-4.39,13.37l-1.48-1.12l1.38-4.18L296.81,95.61z
					 M301.13,97.18l1.24-3.84c0.28-0.87,0.63-1.65,0.93-2.36l-0.03-0.02c-0.64,0.5-1.27,1.03-1.98,1.52l-3.39,2.27L301.13,97.18z
					 M306.6,87.85l0.29,3.05l-1.16-0.89l-0.17-1.83l-0.02-0.02l-1.83,0.33l-1.13-0.84l2.97-0.59L306.6,87.85z"/>
				<path class="st2" d="M302.69,105.48l8.98-9.81l1.42,1.27l-1.42,7.85c-0.32,1.77-0.69,3.36-1.19,4.79l0.09,0.02
					c1.08-1.42,2.11-2.64,3.54-4.17l3.76-4.1l1.17,1.1l-8.95,9.81l-1.27-1.18l1.41-7.82c0.33-1.74,0.7-3.45,1.19-4.96l-0.05-0.02
					c-1.05,1.29-2.14,2.49-3.61,4.13l-3.82,4.17L302.69,105.48z"/>
				<path class="st2" d="M317.51,120.27l7.27-11.95l1.24,1.43l-3.65,5.83c-1,1.58-1.92,3.02-2.86,4.32l0.05,0.03
					c1.42-0.73,3.01-1.4,4.75-2.07l6.43-2.58l1.19,1.41l-13.21,5.02L317.51,120.27z"/>
				<path class="st2" d="M334.78,120.49l-10.66,8.02l-1.01-1.38l10.62-8.02L334.78,120.49z"/>
				<path class="st2" d="M325.74,135.21c0.42-0.28,1.07-0.19,1.34,0.26c0.3,0.44,0.14,1.04-0.26,1.34c-0.44,0.29-1.07,0.2-1.38-0.25
					C325.14,136.09,325.28,135.5,325.74,135.21z M335.36,133.79l-2.81-4.26l-3.98,2.66l3.16,4.79l-1.19,0.79l-4.17-6.22l11.05-7.4
					l4.01,6l-1.2,0.79l-3.03-4.54l-3.48,2.33l2.87,4.27L335.36,133.79z M342.3,126.12l-0.72,2.99l-0.82-1.23l0.44-1.77l-0.03-0.06
					l-1.79-0.3l-0.78-1.15l2.95,0.42L342.3,126.12z"/>
				<path class="st2" d="M343.81,137.01l-1.97-3.51l1.25-0.73l4.83,8.61l-1.27,0.71l-2-3.56l-10.3,5.78l-0.88-1.51L343.81,137.01z"
					/>
				<path class="st2" d="M339.44,154.39l12.34-5l0.72,1.76l-4.64,6.46c-1.1,1.46-2.1,2.74-3.12,3.82l0.03,0.03
					c1.59-0.81,3.1-1.46,4.99-2.24l5.18-2.1l0.6,1.51l-12.37,5l-0.6-1.62l4.62-6.44c1.06-1.45,2.12-2.83,3.19-3.98l-0.02-0.05
					c-1.52,0.73-2.99,1.35-5.04,2.19l-5.27,2.14L339.44,154.39z"/>
				<path class="st2" d="M349.02,167.97l-4.4-0.13l-0.48-1.69l14.03,0.54l0.61,1.97l-11.51,8.14l-0.51-1.75l3.62-2.57L349.02,167.97
					z M351.57,171.79l3.27-2.35c0.76-0.55,1.46-0.95,2.17-1.37l-0.03-0.03c-0.81,0.02-1.64,0.06-2.51,0.03l-4.03-0.16L351.57,171.79
					z"/>
				<path class="st2" d="M355.76,189.26c1.78-0.45,4-0.99,5.6-1.27v-0.05c-1.56-0.17-3.33-0.4-5.3-0.73l-6.75-1.12l-0.22-1.26
					l5.81-3.31c1.74-0.98,3.33-1.79,4.81-2.44v-0.05c-1.65,0.25-3.84,0.58-5.84,0.82l-5.68,0.7l-0.3-1.6l13.24-1.54l0.43,2.15
					l-5.91,3.42c-1.53,0.84-2.86,1.54-4.16,2.14v0.03c1.38,0.11,2.91,0.31,4.66,0.59l6.74,1.14l0.44,2.14l-12.94,3.28l-0.32-1.66
					L355.76,189.26z"/>
			</g>
		</g>
	</g>
	<g>
		<g>
			<path class="st2" d="M335.56,209.22c0,67.9-55.1,122.98-122.98,122.98c-67.95,0-122.98-55.08-122.98-122.98
				c0-67.9,55.03-122.97,122.98-122.97C280.45,86.25,335.56,141.32,335.56,209.22z"/>
		</g>
	</g>
	<path class="st3" d="M215.88,268.44c0,0-1.03-3.93-10.14-12.2c-9.1-8.27-21.51-35.99-2.9-53.37s21.51-19.03,24.82-28.13
		c0,0,2.07-4.14,5.38-2.9c0,0,6.21,0.83,2.48,12c0,0-1.65,5.38-12.83,18.62c0,0-6.21,9.1,3.31,8.69s27.3-26.89,27.72-28.96
		c0,0,2.48-6.62,2.48-22.34c0,0-1.24-14.89,4.14-13.65c0,0,3.31-0.41,4.55,6.62c1.24,7.03,3.31,30.2,0,36.82
		c0,0-0.83,4.55-14.48,21.51c-13.65,16.96-24.82,32.27-33.1,55.44C217.32,266.57,216.5,269.47,215.88,268.44z"/>
	<path class="st4" d="M245.46,190.87c0,0-3.72-8.27-9.52-27.72c0,0-0.83-5.79,1.24-7.86c0,0,3.31-4.14,4.96,0.41
		c1.65,4.55,4.14,12.41,4.14,12.41s4.14,10.34,4.55,11.17c0.41,0.83,2.48,3.31-3.93,11.58C246.9,190.87,245.87,192.52,245.46,190.87
		z"/>
	<path class="st5" d="M252.49,177.63c0,0-4.55-9.21-5.59-17.64c0,0-1.03-6.36-1.45-7.6c0,0-1.65-5.23,1.45-8.41c0,0,5.17-4,6,0.96
		c0,0,0.83,9.1,2.07,14.07c0,0,0,2.39,0,3.68c0,1.29,0.21,11.21-1.13,14.94C253.84,177.63,253.32,179.7,252.49,177.63z"/>
	<path class="st6" d="M188.78,232.24c0,0-21.82-25.05-21.25-53.69c0,0,1.81-23.67,20.84-34.84c0,0,3.31-1.24,2.9,0.83
		s-2.07,3.31-2.07,3.31s-9.52,10.34,0,13.65c0,0,11.17,1.65,8.69-13.24c0,0-5.79-17.38,2.48-25.24s8.69-7.03,8.69-7.03
		s0.83-0.41-1.24,4.96c-2.07,5.38-5.38,20.69,4.55,27.72c0,0,8.27,3.31,7.45-7.45c0,0,0-2.48-3.31-6.62
		c-3.31-4.14,11.15,0.87,13.44,9.12c0,0,4.77,14.87-5.16,27.28c-9.93,12.41-20.69,22.34-20.69,22.34S184.23,208.24,188.78,232.24z"
		/>
	<g>
		<path class="st7" d="M161.92,292.86l-2.26-6.09c-0.09-0.23-0.2-0.57-0.33-1.01s-0.27-0.92-0.41-1.45
			c-0.14-0.53-0.25-1.04-0.35-1.54h-0.02c-0.01,0.63-0.03,1.24-0.05,1.82s-0.05,1.15-0.08,1.7l-0.2,3.35
			c-0.01,0.33-0.04,0.65-0.07,0.96s-0.07,0.54-0.09,0.7c0.21-0.02,0.47-0.04,0.77-0.05c0.3-0.01,0.52-0.01,0.64-0.01l-0.07,1.43
			h-4.22l0.07-1.22c0.28-0.01,0.52-0.05,0.71-0.11s0.34-0.2,0.45-0.43c0.11-0.22,0.19-0.58,0.22-1.07l0.48-7.09
			c0.02-0.33,0.05-0.65,0.08-0.96c0.03-0.31,0.06-0.54,0.08-0.7c-0.2,0.01-0.45,0.02-0.75,0.03c-0.3,0.01-0.52,0.02-0.66,0.03
			l0.09-1.43h3.96l2.54,7.18c0.21,0.57,0.38,1.1,0.51,1.59c0.13,0.49,0.26,0.96,0.38,1.41h0.02c0.17-0.43,0.35-0.86,0.52-1.3
			c0.17-0.43,0.34-0.84,0.5-1.24c0.36-0.85,0.72-1.7,1.07-2.56s0.71-1.7,1.06-2.55c0.35-0.85,0.71-1.69,1.06-2.55h4.31l-0.07,1.22
			c-0.27,0.01-0.51,0.05-0.72,0.11s-0.37,0.2-0.49,0.42c-0.12,0.22-0.18,0.58-0.19,1.08l-0.09,7.09c0,0.33-0.02,0.65-0.06,0.96
			c-0.04,0.31-0.07,0.54-0.11,0.7c0.21-0.02,0.47-0.04,0.77-0.05c0.3-0.01,0.52-0.01,0.64-0.01l-0.07,1.43h-5.18l0.07-1.22
			c0.28-0.01,0.53-0.05,0.73-0.11c0.2-0.06,0.36-0.2,0.48-0.43c0.12-0.22,0.18-0.58,0.18-1.07l0.06-3.93
			c0.01-0.15,0.02-0.41,0.02-0.79c0-0.38,0-0.79,0-1.24c0-0.45,0-0.87,0-1.25h-0.02l-0.87,2.11l-3.37,8.11H161.92z"/>
		<path class="st7" d="M183.08,279.72l-0.09,3.59h-1.2c0.04-0.68-0.06-1.19-0.28-1.54c-0.22-0.34-0.5-0.58-0.84-0.69
			c-0.34-0.12-0.68-0.17-1.01-0.16l-0.67,0.02c-0.26,0-0.48,0.03-0.68,0.1c-0.19,0.07-0.34,0.22-0.45,0.45
			c-0.11,0.23-0.18,0.58-0.2,1.06l-0.13,2.78h2.17c0-0.17,0-0.35,0-0.55s0-0.38,0-0.57c0-0.18,0-0.35,0-0.5h1.43l-0.22,4.5h-1.22
			c0.02-0.52-0.04-0.89-0.19-1.12s-0.37-0.37-0.64-0.44c-0.27-0.06-0.57-0.09-0.91-0.07l-0.48,0.02l-0.17,3.04
			c-0.01,0.33-0.03,0.65-0.06,0.94c-0.03,0.3-0.06,0.53-0.08,0.69h2.48c0.37,0,0.73-0.08,1.08-0.25c0.35-0.17,0.65-0.44,0.89-0.83
			c0.24-0.39,0.38-0.92,0.42-1.58h1.22l-0.31,4.07h-9.74l0.07-1.22c0.27-0.01,0.51-0.05,0.7-0.11c0.2-0.06,0.35-0.2,0.47-0.43
			c0.12-0.22,0.19-0.58,0.21-1.07l0.37-7.09c0.02-0.33,0.05-0.65,0.08-0.96c0.03-0.31,0.06-0.54,0.08-0.7
			c-0.2,0.01-0.44,0.02-0.74,0.03c-0.3,0.01-0.51,0.02-0.65,0.03l0.07-1.43H183.08z"/>
		<path class="st7" d="M194.54,292.86l-5.52-7.61c-0.15-0.21-0.3-0.43-0.46-0.67c-0.16-0.23-0.32-0.48-0.48-0.72h-0.02l-0.26,5.78
			c-0.01,0.33-0.04,0.65-0.07,0.96s-0.07,0.54-0.09,0.7c0.21-0.02,0.46-0.04,0.76-0.05c0.3-0.01,0.51-0.01,0.65-0.01l-0.09,1.43
			h-4.22l0.07-1.22c0.28-0.01,0.52-0.05,0.72-0.11c0.2-0.06,0.35-0.2,0.47-0.43c0.12-0.22,0.19-0.58,0.21-1.07l0.31-7.09
			c0.02-0.33,0.05-0.65,0.08-0.96c0.03-0.31,0.06-0.54,0.08-0.7c-0.2,0.01-0.45,0.02-0.75,0.03c-0.3,0.01-0.52,0.02-0.66,0.03
			l0.09-1.43h2.91l5.28,7.17c0.28,0.4,0.52,0.74,0.71,1.03s0.36,0.54,0.49,0.75h0.02l0.3-5.91c0.03-0.33,0.05-0.65,0.08-0.96
			c0.03-0.31,0.06-0.54,0.08-0.7c-0.2,0.01-0.45,0.02-0.75,0.03c-0.3,0.01-0.52,0.02-0.66,0.03l0.09-1.43h4.2l-0.06,1.22
			c-0.28,0.01-0.52,0.05-0.72,0.11c-0.2,0.06-0.36,0.2-0.47,0.42s-0.19,0.58-0.21,1.08l-0.56,10.31H194.54z"/>
		<path class="st7" d="M210.39,279.72l-0.11,4.18h-1.22c0.04-0.67-0.03-1.22-0.19-1.66s-0.41-0.77-0.74-0.98s-0.72-0.32-1.19-0.31
			h-0.89l-0.44,8.68c-0.01,0.33-0.04,0.65-0.07,0.96s-0.07,0.54-0.09,0.7c0.14-0.01,0.3-0.02,0.5-0.03c0.2-0.01,0.39-0.01,0.57-0.02
			c0.19-0.01,0.32-0.01,0.41-0.01l-0.07,1.43h-5.37l0.07-1.22c0.28-0.01,0.53-0.05,0.72-0.11s0.35-0.2,0.47-0.43
			c0.12-0.22,0.19-0.58,0.21-1.07l0.46-8.87h-0.85c-0.7,0.01-1.27,0.25-1.71,0.72c-0.44,0.47-0.68,1.2-0.73,2.2h-1.22l0.31-4.18
			H210.39z"/>
		<path class="st7" d="M217.87,279.42c1.12,0,2.08,0.2,2.86,0.61s1.41,0.95,1.89,1.62s0.81,1.4,1.01,2.19
			c0.2,0.79,0.28,1.57,0.24,2.35c-0.04,0.77-0.21,1.54-0.51,2.33c-0.3,0.79-0.74,1.52-1.3,2.19s-1.25,1.22-2.07,1.63
			c-0.82,0.41-1.78,0.62-2.88,0.62c-1.17,0-2.16-0.2-2.95-0.59c-0.8-0.4-1.43-0.92-1.89-1.58c-0.46-0.66-0.79-1.39-0.97-2.19
			c-0.19-0.8-0.25-1.6-0.2-2.41c0.04-0.78,0.2-1.56,0.5-2.36c0.3-0.8,0.73-1.53,1.3-2.19c0.57-0.67,1.26-1.2,2.09-1.61
			S216.77,279.42,217.87,279.42z M217.56,280.68c-0.63,0.01-1.17,0.18-1.62,0.52c-0.45,0.33-0.82,0.77-1.1,1.3
			c-0.28,0.53-0.5,1.1-0.64,1.71c-0.14,0.61-0.23,1.2-0.25,1.77c-0.04,0.58-0.01,1.2,0.08,1.86c0.09,0.66,0.27,1.29,0.53,1.88
			c0.26,0.59,0.62,1.07,1.07,1.44s1.04,0.56,1.74,0.56c0.64,0,1.19-0.16,1.64-0.49c0.45-0.33,0.82-0.75,1.1-1.27s0.5-1.08,0.65-1.69
			c0.15-0.6,0.23-1.19,0.26-1.76c0.04-0.85,0-1.64-0.11-2.35c-0.11-0.72-0.31-1.34-0.59-1.86c-0.28-0.52-0.66-0.93-1.11-1.21
			C218.75,280.8,218.2,280.67,217.56,280.68z"/>
		<path class="st7" d="M230.8,279.68c1.09-0.01,2.02,0.11,2.8,0.37c0.78,0.26,1.36,0.68,1.76,1.26c0.4,0.58,0.55,1.36,0.46,2.35
			c-0.04,0.52-0.19,1.01-0.45,1.48c-0.27,0.47-0.65,0.88-1.14,1.24c-0.49,0.36-1.1,0.64-1.83,0.85c0.11,0.05,0.22,0.11,0.33,0.19
			c0.11,0.08,0.22,0.18,0.32,0.29c0.11,0.11,0.21,0.23,0.31,0.34s0.19,0.24,0.26,0.36l0.8,1.3c0.26,0.42,0.48,0.75,0.68,1
			s0.39,0.43,0.59,0.55c0.2,0.12,0.44,0.18,0.71,0.2l-0.07,1.22h-3c-0.21-0.16-0.42-0.39-0.63-0.69c-0.21-0.3-0.43-0.65-0.65-1.05
			l-1.24-2.22c-0.14-0.25-0.26-0.46-0.38-0.63c-0.12-0.17-0.23-0.32-0.34-0.44c-0.12,0-0.24,0-0.34,0s-0.2,0-0.3,0s-0.2,0-0.32,0
			l-0.11,1.98c-0.01,0.35-0.03,0.67-0.06,0.98c-0.03,0.31-0.06,0.54-0.08,0.7c0.13-0.01,0.31-0.02,0.52-0.03
			c0.21-0.01,0.41-0.01,0.61-0.02c0.2-0.01,0.34-0.01,0.43-0.01l-0.06,1.43h-5.46l0.07-1.22c0.27-0.01,0.51-0.05,0.7-0.11
			s0.35-0.2,0.47-0.43c0.12-0.22,0.19-0.58,0.21-1.07l0.37-7.09c0.02-0.33,0.05-0.65,0.08-0.96c0.03-0.31,0.06-0.54,0.08-0.7
			c-0.2,0.01-0.45,0.02-0.74,0.03c-0.3,0.01-0.51,0.02-0.65,0.03l0.07-1.43c0.88-0.01,1.75-0.02,2.62-0.02
			C229.07,279.7,229.94,279.69,230.8,279.68z M230.71,280.98c-0.26,0-0.49,0.03-0.68,0.09c-0.19,0.06-0.34,0.2-0.45,0.41
			s-0.18,0.53-0.2,0.96l-0.18,3.8c0.14,0.01,0.28,0.03,0.43,0.05s0.3,0.03,0.46,0.03c0.69,0,1.25-0.1,1.69-0.31
			c0.43-0.2,0.76-0.51,0.97-0.93c0.22-0.41,0.34-0.93,0.36-1.56c0.04-0.59-0.03-1.06-0.2-1.4c-0.17-0.34-0.39-0.59-0.66-0.76
			c-0.27-0.17-0.54-0.27-0.82-0.32C231.13,281,230.89,280.98,230.71,280.98z"/>
		<path class="st7" d="M243.45,279.72l-0.05,1.22c-0.27,0.01-0.51,0.05-0.71,0.11c-0.2,0.06-0.36,0.2-0.48,0.42
			c-0.12,0.22-0.19,0.58-0.21,1.08l-0.37,7.09c-0.01,0.33-0.03,0.65-0.06,0.96c-0.03,0.31-0.06,0.54-0.08,0.7
			c0.2-0.02,0.45-0.04,0.75-0.05c0.3-0.01,0.52-0.01,0.64-0.01l-0.07,1.43h-5.28l0.07-1.22c0.27-0.01,0.51-0.05,0.7-0.11
			s0.35-0.2,0.47-0.43c0.12-0.22,0.19-0.58,0.21-1.07l0.37-7.09c0.02-0.33,0.05-0.65,0.08-0.96c0.03-0.31,0.06-0.54,0.08-0.7
			c-0.2,0.01-0.45,0.02-0.74,0.03c-0.3,0.01-0.51,0.02-0.65,0.03l0.07-1.43H243.45z"/>
		<path class="st7" d="M254.45,292.86l-5.52-7.61c-0.15-0.21-0.3-0.43-0.46-0.67c-0.16-0.23-0.32-0.48-0.48-0.72h-0.02l-0.26,5.78
			c-0.01,0.33-0.04,0.65-0.07,0.96c-0.04,0.31-0.07,0.54-0.09,0.7c0.21-0.02,0.46-0.04,0.76-0.05c0.3-0.01,0.51-0.01,0.65-0.01
			l-0.09,1.43h-4.22l0.07-1.22c0.28-0.01,0.53-0.05,0.72-0.11s0.35-0.2,0.47-0.43c0.12-0.22,0.19-0.58,0.21-1.07l0.31-7.09
			c0.02-0.33,0.05-0.65,0.08-0.96c0.03-0.31,0.06-0.54,0.08-0.7c-0.2,0.01-0.45,0.02-0.75,0.03c-0.3,0.01-0.52,0.02-0.66,0.03
			l0.09-1.43h2.91l5.28,7.17c0.28,0.4,0.52,0.74,0.71,1.03s0.36,0.54,0.49,0.75h0.02l0.3-5.91c0.03-0.33,0.05-0.65,0.08-0.96
			c0.03-0.31,0.06-0.54,0.08-0.7c-0.2,0.01-0.45,0.02-0.75,0.03c-0.3,0.01-0.52,0.02-0.66,0.03l0.09-1.43h4.2l-0.06,1.22
			c-0.28,0.01-0.52,0.05-0.72,0.11c-0.2,0.06-0.36,0.2-0.47,0.42s-0.19,0.58-0.21,1.08l-0.56,10.31H254.45z"/>
		<path class="st7" d="M264.78,292.97c-1.33,0-2.46-0.29-3.37-0.88c-0.91-0.59-1.59-1.38-2.03-2.38c-0.44-1-0.63-2.11-0.56-3.33
			c0.04-0.84,0.21-1.67,0.52-2.5s0.75-1.58,1.32-2.25s1.27-1.21,2.1-1.61c0.83-0.4,1.78-0.6,2.85-0.6c0.32,0,0.69,0.03,1.11,0.1
			c0.42,0.07,0.84,0.17,1.26,0.3c0.42,0.14,0.78,0.3,1.09,0.5v-0.78h1.43l-0.22,4.31h-1.22c-0.07-0.69-0.26-1.27-0.55-1.72
			c-0.3-0.46-0.68-0.8-1.14-1.04s-0.98-0.35-1.56-0.35c-0.64,0-1.21,0.15-1.71,0.44c-0.5,0.3-0.92,0.69-1.26,1.18
			c-0.34,0.49-0.61,1.06-0.8,1.69c-0.19,0.63-0.3,1.28-0.34,1.94c-0.05,1.06,0.05,2.01,0.3,2.83s0.66,1.48,1.22,1.95
			c0.56,0.48,1.26,0.71,2.1,0.71c0.23,0,0.52-0.02,0.85-0.05c0.33-0.04,0.66-0.09,0.99-0.17s0.61-0.17,0.84-0.28l0.09-1.72
			c0.03-0.33,0.05-0.65,0.07-0.96s0.05-0.54,0.07-0.7c-0.2,0.01-0.44,0.02-0.74,0.03c-0.3,0.01-0.51,0.02-0.65,0.03l0.07-1.43h4.87
			l-0.06,1.22c-0.21,0.01-0.39,0.04-0.55,0.07c-0.16,0.04-0.29,0.11-0.4,0.21c-0.11,0.1-0.19,0.26-0.25,0.47s-0.1,0.49-0.12,0.85
			l-0.15,2.96h-0.46c-0.32,0-0.65,0.04-0.97,0.12c-0.33,0.08-0.67,0.18-1.03,0.29c-0.42,0.12-0.88,0.24-1.37,0.35
			C265.95,292.92,265.4,292.97,264.78,292.97z"/>
	</g>
</g>
</svg>
