<svg width="1444" height="1175" viewBox="0 0 1444 1175" fill="none" xmlns="http://www.w3.org/2000/svg">
<path opacity="0.05" d="M768.314 428.947C484.323 331.75 618.517 158.035 386.199 35.2638C229.428 -47.5842 97.0068 32.2604 38.2769 119.706C-23.2184 211.268 3.32782 345.555 28.6505 409.623C77.2366 532.549 215.676 568.655 269.308 655.912C322.941 743.169 281.685 911.77 362.821 1067.28C443.957 1222.8 689.929 1183.19 768.314 1110.21C850.279 1033.9 895.818 912.065 1009.16 817.759C1109.5 734.268 1197.01 668.233 1315.14 539.101C1349.95 501.046 1443.61 378.714 1443.61 378.714C1443.61 378.714 1245.46 445.48 1172.81 460.288C1006.33 494.215 900.116 474.057 768.314 428.947Z" fill="url(#paint0_linear_3488_2335)"/>
<defs>
<linearGradient id="paint0_linear_3488_2335" x1="1443.61" y1="0.435913" x2="0.607422" y2="0.435913" gradientUnits="userSpaceOnUse">
<stop stop-color="#009DD1"/>
<stop offset="1" stop-color="#0064A4"/>
</linearGradient>
</defs>
</svg>
