<svg width="569" height="730" viewBox="0 0 569 730" fill="none" xmlns="http://www.w3.org/2000/svg">
<rect x="388.414" y="718.607" width="13" height="13" rx="3" transform="rotate(-45 388.414 718.607)" fill="white" stroke="#80F3DA" stroke-width="2"/>
<path d="M2.48959 232.253C0.907277 232.548 0.303323 234.496 1.44141 235.634L10.1423 244.335C11.2804 245.473 13.2282 244.869 13.5227 243.287L15.513 232.595C15.77 231.215 14.5614 230.006 13.1808 230.263L2.48959 232.253Z" fill="white" stroke="#DC8CFF" stroke-width="2" stroke-linecap="round" stroke-linejoin="round"/>
<path d="M555.661 2.38056L555.592 0.907679L555.592 0.907678L555.661 2.38056ZM557.203 3.78432L558.676 3.7152L558.676 3.7152L557.203 3.78432ZM554.257 3.92255L555.73 3.85344L555.73 3.85344L554.257 3.92255ZM554.593 11.0808L554.638 12.5547C555.033 12.5426 555.407 12.3725 555.675 12.0824C555.944 11.7923 556.084 11.4065 556.066 11.0117L554.593 11.0808ZM546.186 11.3371L546.141 9.86331L546.141 9.86331L546.186 11.3371ZM544.757 12.8559L546.231 12.8109L546.231 12.8109L544.757 12.8559ZM546.276 14.2848L546.321 15.7586L546.321 15.7586L546.276 14.2848ZM554.731 14.027L556.204 13.9579C556.166 13.1539 555.491 12.5287 554.686 12.5532L554.731 14.027ZM555.068 21.2032L556.541 21.1341L555.068 21.2032ZM556.61 22.6069L556.679 24.0798L556.679 24.0798L556.61 22.6069ZM558.014 21.065L556.541 21.1341L556.541 21.1341L558.014 21.065ZM557.679 13.9371L557.634 12.4633C557.239 12.4754 556.866 12.6455 556.597 12.9356C556.329 13.2257 556.188 13.6114 556.206 14.0062L557.679 13.9371ZM564.869 13.718L564.913 15.1918L564.913 15.1918L564.869 13.718ZM566.297 12.1992L567.771 12.1543L567.771 12.1543L566.297 12.1992ZM564.779 10.7703L564.734 9.29651L564.779 10.7703ZM557.541 10.991L556.068 11.0601C556.106 11.8641 556.781 12.4893 557.586 12.4648L557.541 10.991ZM555.73 3.85344L555.73 3.85344L558.676 3.7152C558.599 2.0883 557.219 0.831335 555.592 0.907679L555.73 3.85344ZM555.73 3.85344L555.73 3.85344L555.592 0.907678C553.965 0.984025 552.708 2.36477 552.784 3.99167L555.73 3.85344ZM556.066 11.0117L555.73 3.85344L552.784 3.99167L553.12 11.15L556.066 11.0117ZM546.231 12.8109L554.638 12.5547L554.548 9.60703L546.141 9.86331L546.231 12.8109ZM546.231 12.8109L546.231 12.8109L546.141 9.86331C544.513 9.91294 543.234 11.2729 543.284 12.9008L546.231 12.8109ZM546.231 12.8109L546.231 12.8109L543.284 12.9008C543.333 14.5287 544.693 15.8082 546.321 15.7586L546.231 12.8109ZM554.686 12.5532L546.231 12.8109L546.321 15.7586L554.776 15.5008L554.686 12.5532ZM556.541 21.1341L556.204 13.9579L553.258 14.0961L553.595 21.2723L556.541 21.1341ZM556.541 21.1341L556.541 21.1341L553.595 21.2723C553.672 22.8992 555.052 24.1562 556.679 24.0798L556.541 21.1341ZM556.541 21.1341L556.679 24.0798C558.306 24.0035 559.563 22.6227 559.487 20.9958L556.541 21.1341ZM556.206 14.0062L556.541 21.1341L559.487 20.9958L559.152 13.868L556.206 14.0062ZM564.824 12.2441L557.634 12.4633L557.724 15.4109L564.913 15.1918L564.824 12.2441ZM564.824 12.2441L564.824 12.2441L564.913 15.1918C566.541 15.1421 567.821 13.7822 567.771 12.1543L564.824 12.2441ZM564.824 12.2441L567.771 12.1543C567.722 10.5263 566.362 9.24688 564.734 9.29651L564.824 12.2441ZM557.586 12.4648L564.824 12.2441L564.734 9.29651L557.496 9.51715L557.586 12.4648ZM555.73 3.85344L556.068 11.0601L559.014 10.9219L558.676 3.7152L555.73 3.85344Z" fill="#EAEAEA"/>
</svg>
